<svg width="1280" height="720" xmlns="http://www.w3.org/2000/svg" xmlns:xlink="http://www.w3.org/1999/xlink" overflow="hidden"><defs><filter id="fx0" x="-10%" y="-10%" width="120%" height="120%" filterUnits="userSpaceOnUse" primitiveUnits="userSpaceOnUse"><feComponentTransfer color-interpolation-filters="sRGB"><feFuncR type="discrete" tableValues="1 1"/><feFuncG type="discrete" tableValues="1 1"/><feFuncB type="discrete" tableValues="1 1"/><feFuncA type="linear" slope="0.4" intercept="0"/></feComponentTransfer><feGaussianBlur stdDeviation="4.44444 4.44444"/></filter><filter id="fx1" x="-10%" y="-10%" width="120%" height="120%" filterUnits="userSpaceOnUse" primitiveUnits="userSpaceOnUse"><feComponentTransfer color-interpolation-filters="sRGB"><feFuncR type="discrete" tableValues="0.74902 0.74902"/><feFuncG type="discrete" tableValues="0.74902 0.74902"/><feFuncB type="discrete" tableValues="0.74902 0.74902"/><feFuncA type="linear" slope="0.4" intercept="0"/></feComponentTransfer><feGaussianBlur stdDeviation="6.66667 6.66667"/></filter><filter id="fx2" x="-10%" y="-10%" width="120%" height="120%" filterUnits="userSpaceOnUse" primitiveUnits="userSpaceOnUse"><feComponentTransfer color-interpolation-filters="sRGB"><feFuncR type="discrete" tableValues="1 1"/><feFuncG type="discrete" tableValues="1 1"/><feFuncB type="discrete" tableValues="1 1"/><feFuncA type="linear" slope="0.4" intercept="0"/></feComponentTransfer><feGaussianBlur stdDeviation="4.44444 4.44444"/></filter><filter id="fx3" x="-10%" y="-10%" width="120%" height="120%" filterUnits="userSpaceOnUse" primitiveUnits="userSpaceOnUse"><feComponentTransfer color-interpolation-filters="sRGB"><feFuncR type="discrete" tableValues="0.74902 0.74902"/><feFuncG type="discrete" tableValues="0.74902 0.74902"/><feFuncB type="discrete" tableValues="0.74902 0.74902"/><feFuncA type="linear" slope="0.4" intercept="0"/></feComponentTransfer><feGaussianBlur stdDeviation="6.66667 6.66667"/></filter><filter id="fx4" x="-10%" y="-10%" width="120%" height="120%" filterUnits="userSpaceOnUse" primitiveUnits="userSpaceOnUse"><feComponentTransfer color-interpolation-filters="sRGB"><feFuncR type="discrete" tableValues="1 1"/><feFuncG type="discrete" tableValues="1 1"/><feFuncB type="discrete" tableValues="1 1"/><feFuncA type="linear" slope="0.4" intercept="0"/></feComponentTransfer><feGaussianBlur stdDeviation="4.44444 4.44444"/></filter><filter id="fx5" x="-10%" y="-10%" width="120%" height="120%" filterUnits="userSpaceOnUse" primitiveUnits="userSpaceOnUse"><feComponentTransfer color-interpolation-filters="sRGB"><feFuncR type="discrete" tableValues="0.74902 0.74902"/><feFuncG type="discrete" tableValues="0.74902 0.74902"/><feFuncB type="discrete" tableValues="0.74902 0.74902"/><feFuncA type="linear" slope="0.4" intercept="0"/></feComponentTransfer><feGaussianBlur stdDeviation="6.66667 6.66667"/></filter><filter id="fx6" x="-10%" y="-10%" width="120%" height="120%" filterUnits="userSpaceOnUse" primitiveUnits="userSpaceOnUse"><feComponentTransfer color-interpolation-filters="sRGB"><feFuncR type="discrete" tableValues="1 1"/><feFuncG type="discrete" tableValues="1 1"/><feFuncB type="discrete" tableValues="1 1"/><feFuncA type="linear" slope="0.4" intercept="0"/></feComponentTransfer><feGaussianBlur stdDeviation="4.44444 4.44444"/></filter><filter id="fx7" x="-10%" y="-10%" width="120%" height="120%" filterUnits="userSpaceOnUse" primitiveUnits="userSpaceOnUse"><feComponentTransfer color-interpolation-filters="sRGB"><feFuncR type="discrete" tableValues="0.74902 0.74902"/><feFuncG type="discrete" tableValues="0.74902 0.74902"/><feFuncB type="discrete" tableValues="0.74902 0.74902"/><feFuncA type="linear" slope="0.4" intercept="0"/></feComponentTransfer><feGaussianBlur stdDeviation="6.66667 6.66667"/></filter><filter id="fx8" x="-10%" y="-10%" width="120%" height="120%" filterUnits="userSpaceOnUse" primitiveUnits="userSpaceOnUse"><feComponentTransfer color-interpolation-filters="sRGB"><feFuncR type="discrete" tableValues="1 1"/><feFuncG type="discrete" tableValues="1 1"/><feFuncB type="discrete" tableValues="1 1"/><feFuncA type="linear" slope="0.4" intercept="0"/></feComponentTransfer><feGaussianBlur stdDeviation="4.44444 4.44444"/></filter><filter id="fx9" x="-10%" y="-10%" width="120%" height="120%" filterUnits="userSpaceOnUse" primitiveUnits="userSpaceOnUse"><feComponentTransfer color-interpolation-filters="sRGB"><feFuncR type="discrete" tableValues="0.74902 0.74902"/><feFuncG type="discrete" tableValues="0.74902 0.74902"/><feFuncB type="discrete" tableValues="0.74902 0.74902"/><feFuncA type="linear" slope="0.4" intercept="0"/></feComponentTransfer><feGaussianBlur stdDeviation="6.66667 6.66667"/></filter><filter id="fx10" x="-10%" y="-10%" width="120%" height="120%" filterUnits="userSpaceOnUse" primitiveUnits="userSpaceOnUse"><feComponentTransfer color-interpolation-filters="sRGB"><feFuncR type="discrete" tableValues="1 1"/><feFuncG type="discrete" tableValues="1 1"/><feFuncB type="discrete" tableValues="1 1"/><feFuncA type="linear" slope="0.4" intercept="0"/></feComponentTransfer><feGaussianBlur stdDeviation="4.44444 4.44444"/></filter><filter id="fx11" x="-10%" y="-10%" width="120%" height="120%" filterUnits="userSpaceOnUse" primitiveUnits="userSpaceOnUse"><feComponentTransfer color-interpolation-filters="sRGB"><feFuncR type="discrete" tableValues="0.74902 0.74902"/><feFuncG type="discrete" tableValues="0.74902 0.74902"/><feFuncB type="discrete" tableValues="0.74902 0.74902"/><feFuncA type="linear" slope="0.4" intercept="0"/></feComponentTransfer><feGaussianBlur stdDeviation="6.66667 6.66667"/></filter><filter id="fx12" x="-10%" y="-10%" width="120%" height="120%" filterUnits="userSpaceOnUse" primitiveUnits="userSpaceOnUse"><feComponentTransfer color-interpolation-filters="sRGB"><feFuncR type="discrete" tableValues="1 1"/><feFuncG type="discrete" tableValues="1 1"/><feFuncB type="discrete" tableValues="1 1"/><feFuncA type="linear" slope="0.4" intercept="0"/></feComponentTransfer><feGaussianBlur stdDeviation="4.44444 4.44444"/></filter><filter id="fx13" x="-10%" y="-10%" width="120%" height="120%" filterUnits="userSpaceOnUse" primitiveUnits="userSpaceOnUse"><feComponentTransfer color-interpolation-filters="sRGB"><feFuncR type="discrete" tableValues="0.74902 0.74902"/><feFuncG type="discrete" tableValues="0.74902 0.74902"/><feFuncB type="discrete" tableValues="0.74902 0.74902"/><feFuncA type="linear" slope="0.4" intercept="0"/></feComponentTransfer><feGaussianBlur stdDeviation="6.66667 6.66667"/></filter><filter id="fx14" x="-10%" y="-10%" width="120%" height="120%" filterUnits="userSpaceOnUse" primitiveUnits="userSpaceOnUse"><feComponentTransfer color-interpolation-filters="sRGB"><feFuncR type="discrete" tableValues="1 1"/><feFuncG type="discrete" tableValues="1 1"/><feFuncB type="discrete" tableValues="1 1"/><feFuncA type="linear" slope="0.4" intercept="0"/></feComponentTransfer><feGaussianBlur stdDeviation="4.44444 4.44444"/></filter><filter id="fx15" x="-10%" y="-10%" width="120%" height="120%" filterUnits="userSpaceOnUse" primitiveUnits="userSpaceOnUse"><feComponentTransfer color-interpolation-filters="sRGB"><feFuncR type="discrete" tableValues="0.74902 0.74902"/><feFuncG type="discrete" tableValues="0.74902 0.74902"/><feFuncB type="discrete" tableValues="0.74902 0.74902"/><feFuncA type="linear" slope="0.4" intercept="0"/></feComponentTransfer><feGaussianBlur stdDeviation="6.66667 6.66667"/></filter><filter id="fx16" x="-10%" y="-10%" width="120%" height="120%" filterUnits="userSpaceOnUse" primitiveUnits="userSpaceOnUse"><feComponentTransfer color-interpolation-filters="sRGB"><feFuncR type="discrete" tableValues="1 1"/><feFuncG type="discrete" tableValues="1 1"/><feFuncB type="discrete" tableValues="1 1"/><feFuncA type="linear" slope="0.4" intercept="0"/></feComponentTransfer><feGaussianBlur stdDeviation="4.44444 4.44444"/></filter><filter id="fx17" x="-10%" y="-10%" width="120%" height="120%" filterUnits="userSpaceOnUse" primitiveUnits="userSpaceOnUse"><feComponentTransfer color-interpolation-filters="sRGB"><feFuncR type="discrete" tableValues="0.74902 0.74902"/><feFuncG type="discrete" tableValues="0.74902 0.74902"/><feFuncB type="discrete" tableValues="0.74902 0.74902"/><feFuncA type="linear" slope="0.4" intercept="0"/></feComponentTransfer><feGaussianBlur stdDeviation="6.66667 6.66667"/></filter><filter id="fx18" x="-10%" y="-10%" width="120%" height="120%" filterUnits="userSpaceOnUse" primitiveUnits="userSpaceOnUse"><feComponentTransfer color-interpolation-filters="sRGB"><feFuncR type="discrete" tableValues="1 1"/><feFuncG type="discrete" tableValues="1 1"/><feFuncB type="discrete" tableValues="1 1"/><feFuncA type="linear" slope="0.4" intercept="0"/></feComponentTransfer><feGaussianBlur stdDeviation="4.44444 4.44444"/></filter><filter id="fx19" x="-10%" y="-10%" width="120%" height="120%" filterUnits="userSpaceOnUse" primitiveUnits="userSpaceOnUse"><feComponentTransfer color-interpolation-filters="sRGB"><feFuncR type="discrete" tableValues="0.74902 0.74902"/><feFuncG type="discrete" tableValues="0.74902 0.74902"/><feFuncB type="discrete" tableValues="0.74902 0.74902"/><feFuncA type="linear" slope="0.4" intercept="0"/></feComponentTransfer><feGaussianBlur stdDeviation="6.66667 6.66667"/></filter><filter id="fx20" x="-10%" y="-10%" width="120%" height="120%" filterUnits="userSpaceOnUse" primitiveUnits="userSpaceOnUse"><feComponentTransfer color-interpolation-filters="sRGB"><feFuncR type="discrete" tableValues="1 1"/><feFuncG type="discrete" tableValues="1 1"/><feFuncB type="discrete" tableValues="1 1"/><feFuncA type="linear" slope="0.4" intercept="0"/></feComponentTransfer><feGaussianBlur stdDeviation="4.44444 4.44444"/></filter><filter id="fx21" x="-10%" y="-10%" width="120%" height="120%" filterUnits="userSpaceOnUse" primitiveUnits="userSpaceOnUse"><feComponentTransfer color-interpolation-filters="sRGB"><feFuncR type="discrete" tableValues="0.74902 0.74902"/><feFuncG type="discrete" tableValues="0.74902 0.74902"/><feFuncB type="discrete" tableValues="0.74902 0.74902"/><feFuncA type="linear" slope="0.4" intercept="0"/></feComponentTransfer><feGaussianBlur stdDeviation="6.66667 6.66667"/></filter><clipPath id="clip22"><rect x="0" y="0" width="1280" height="720"/></clipPath></defs><g clip-path="url(#clip22)"><rect x="0" y="0" width="1280" height="720" fill="#FFFFFF"/><rect x="0" y="0" width="1280" height="720" fill="#F8F8F8"/><g filter="url(#fx0)" transform="translate(20 91)"><g><path d="M14.5719 24.3764C14.5719 18.9615 18.9615 14.5719 24.3764 14.5719L314.767 14.5719C320.182 14.5719 324.572 18.9615 324.572 24.3764L324.572 127.767C324.572 133.182 320.182 137.572 314.767 137.572L24.3764 137.572C18.9615 137.572 14.5719 133.182 14.5719 127.767Z" fill="#F5E8FF" fill-rule="evenodd"/></g></g><path d="M44 124.804C44 119.39 48.3896 115 53.8045 115L344.196 115C349.61 115 354 119.39 354 124.804L354 228.196C354 233.61 349.61 238 344.196 238L53.8045 238C48.3896 238 44 233.61 44 228.196Z" fill="#F5E8FF" fill-rule="evenodd"/><g filter="url(#fx1)" transform="translate(37 108)"><g><path d="M21.1421 30.9466C21.1421 25.5317 25.5317 21.1421 30.9466 21.1421L321.338 21.1421C326.753 21.1421 331.142 25.5317 331.142 30.9466L331.142 134.338C331.142 139.753 326.753 144.142 321.338 144.142L30.9466 144.142C25.5317 144.142 21.1421 139.753 21.1421 134.338Z" fill="#F5E8FF" fill-rule="evenodd"/></g></g><path d="M44 124.804C44 119.39 48.3896 115 53.8045 115L344.196 115C349.61 115 354 119.39 354 124.804L354 228.196C354 233.61 349.61 238 344.196 238L53.8045 238C48.3896 238 44 233.61 44 228.196Z" fill="#F5E8FF" fill-rule="evenodd"/><g filter="url(#fx2)" transform="translate(20 243)"><g><path d="M14.5719 24.3764C14.5719 18.9615 18.9615 14.5719 24.3764 14.5719L314.767 14.5719C320.182 14.5719 324.572 18.9615 324.572 24.3764L324.572 127.767C324.572 133.182 320.182 137.572 314.767 137.572L24.3764 137.572C18.9615 137.572 14.5719 133.182 14.5719 127.767Z" fill="#F5E8FF" fill-rule="evenodd"/></g></g><path d="M44 276.804C44 271.39 48.3896 267 53.8045 267L344.196 267C349.61 267 354 271.39 354 276.804L354 380.196C354 385.61 349.61 390 344.196 390L53.8045 390C48.3896 390 44 385.61 44 380.196Z" fill="#F5E8FF" fill-rule="evenodd"/><g filter="url(#fx3)" transform="translate(37 260)"><g><path d="M21.1421 30.9466C21.1421 25.5318 25.5317 21.1422 30.9466 21.1422L321.338 21.1422C326.753 21.1422 331.142 25.5318 331.142 30.9466L331.142 134.338C331.142 139.753 326.753 144.142 321.338 144.142L30.9466 144.142C25.5317 144.142 21.1421 139.753 21.1421 134.338Z" fill="#F5E8FF" fill-rule="evenodd"/></g></g><path d="M44 276.804C44 271.39 48.3896 267 53.8045 267L344.196 267C349.61 267 354 271.39 354 276.804L354 380.196C354 385.61 349.61 390 344.196 390L53.8045 390C48.3896 390 44 385.61 44 380.196Z" fill="#F5E8FF" fill-rule="evenodd"/><g filter="url(#fx4)" transform="translate(22 395)"><g><path d="M14.5719 24.3764C14.5719 18.9615 18.9615 14.5719 24.3764 14.5719L314.767 14.5719C320.182 14.5719 324.572 18.9615 324.572 24.3764L324.572 127.767C324.572 133.182 320.182 137.572 314.767 137.572L24.3764 137.572C18.9615 137.572 14.5719 133.182 14.5719 127.767Z" fill="#F5E8FF" fill-rule="evenodd"/></g></g><path d="M46 428.804C46 423.39 50.3896 419 55.8045 419L346.196 419C351.61 419 356 423.39 356 428.804L356 532.196C356 537.61 351.61 542 346.196 542L55.8045 542C50.3896 542 46 537.61 46 532.196Z" fill="#F5E8FF" fill-rule="evenodd"/><g filter="url(#fx5)" transform="translate(39 412)"><g><path d="M21.1421 30.9466C21.1421 25.5318 25.5317 21.1422 30.9466 21.1422L321.338 21.1422C326.753 21.1422 331.142 25.5318 331.142 30.9466L331.142 134.338C331.142 139.753 326.753 144.142 321.338 144.142L30.9466 144.142C25.5317 144.142 21.1421 139.753 21.1421 134.338Z" fill="#F5E8FF" fill-rule="evenodd"/></g></g><path d="M46 428.804C46 423.39 50.3896 419 55.8045 419L346.196 419C351.61 419 356 423.39 356 428.804L356 532.196C356 537.61 351.61 542 346.196 542L55.8045 542C50.3896 542 46 537.61 46 532.196Z" fill="#F5E8FF" fill-rule="evenodd"/><g filter="url(#fx6)" transform="translate(372 545)"><g><path d="M14.5719 25.6514C14.5719 19.5324 19.5324 14.5719 25.6514 14.5719L413.492 14.5719C419.611 14.5719 424.572 19.5324 424.572 25.6514L424.572 142.492C424.572 148.611 419.611 153.572 413.492 153.572L25.6514 153.572C19.5324 153.572 14.5719 148.611 14.5719 142.492Z" fill="#F5E8FF" fill-rule="evenodd"/></g></g><path d="M396 580.08C396 573.96 400.96 569 407.079 569L794.92 569C801.04 569 806 573.96 806 580.08L806 696.92C806 703.04 801.04 708 794.92 708L407.079 708C400.96 708 396 703.04 396 696.92Z" fill="#F5E8FF" fill-rule="evenodd"/><g filter="url(#fx7)" transform="translate(389 562)"><g><path d="M21.1422 32.2217C21.1422 26.1026 26.1026 21.1422 32.2217 21.1422L420.063 21.1422C426.182 21.1422 431.142 26.1026 431.142 32.2217L431.142 149.063C431.142 155.182 426.182 160.142 420.063 160.142L32.2217 160.142C26.1026 160.142 21.1422 155.182 21.1422 149.063Z" fill="#F5E8FF" fill-rule="evenodd"/></g></g><path d="M396 580.08C396 573.96 400.96 569 407.079 569L794.92 569C801.04 569 806 573.96 806 580.08L806 696.92C806 703.04 801.04 708 794.92 708L407.079 708C400.96 708 396 703.04 396 696.92Z" fill="#F5E8FF" fill-rule="evenodd"/><g filter="url(#fx8)" transform="translate(374 245)"><g><path d="M14.5719 36.4126C14.5719 24.3503 24.3503 14.5719 36.4126 14.5719L402.731 14.5719C414.793 14.5719 424.572 24.3503 424.572 36.4126L424.572 266.731C424.572 278.793 414.793 288.572 402.731 288.572L36.4126 288.572C24.3503 288.572 14.5719 278.793 14.5719 266.731Z" fill="#F5E8FF" fill-rule="evenodd"/></g></g><path d="M398 290.841C398 278.778 407.778 269 419.841 269L786.159 269C798.222 269 808 278.778 808 290.841L808 521.159C808 533.222 798.222 543 786.159 543L419.841 543C407.778 543 398 533.222 398 521.159Z" fill="#F5E8FF" fill-rule="evenodd"/><g filter="url(#fx9)" transform="translate(391 262)"><g><path d="M21.1422 42.9828C21.1422 30.9206 30.9205 21.1422 42.9828 21.1422L409.301 21.1422C421.364 21.1422 431.142 30.9206 431.142 42.9828L431.142 273.301C431.142 285.364 421.364 295.142 409.301 295.142L42.9828 295.142C30.9205 295.142 21.1422 285.364 21.1422 273.301Z" fill="#F5E8FF" fill-rule="evenodd"/></g></g><path d="M398 290.841C398 278.778 407.778 269 419.841 269L786.159 269C798.222 269 808 278.778 808 290.841L808 521.159C808 533.222 798.222 543 786.159 543L419.841 543C407.778 543 398 533.222 398 521.159Z" fill="#F5E8FF" fill-rule="evenodd"/><g filter="url(#fx10)" transform="translate(19 546)"><g><path d="M14.5719 25.6515C14.5719 19.5324 19.5324 14.5719 25.6515 14.5719L316.492 14.5719C322.611 14.5719 327.572 19.5324 327.572 25.6515L327.572 142.492C327.572 148.611 322.611 153.572 316.492 153.572L25.6515 153.572C19.5324 153.572 14.5719 148.611 14.5719 142.492Z" fill="#F5E8FF" fill-rule="evenodd"/></g></g><path d="M43 581.08C43 574.961 47.9605 570 54.0796 570L344.92 570C351.039 570 356 574.961 356 581.08L356 697.92C356 704.039 351.039 709 344.92 709L54.0796 709C47.9605 709 43 704.039 43 697.92Z" fill="#F5E8FF" fill-rule="evenodd"/><g filter="url(#fx11)" transform="translate(36 563)"><g><path d="M21.1421 32.2218C21.1421 26.1027 26.1026 21.1422 32.2217 21.1422L323.062 21.1422C329.182 21.1422 334.142 26.1027 334.142 32.2218L334.142 149.063C334.142 155.182 329.182 160.142 323.062 160.142L32.2217 160.142C26.1026 160.142 21.1421 155.182 21.1421 149.063Z" fill="#F5E8FF" fill-rule="evenodd"/></g></g><path d="M43 581.08C43 574.961 47.9605 570 54.0796 570L344.92 570C351.039 570 356 574.961 356 581.08L356 697.92C356 704.039 351.039 709 344.92 709L54.0796 709C47.9605 709 43 704.039 43 697.92Z" fill="#F5E8FF" fill-rule="evenodd"/><g filter="url(#fx12)" transform="translate(817 546)"><g><path d="M14.5719 25.5719C14.5719 19.4968 19.4968 14.5719 25.5719 14.5719L397.572 14.5719C403.647 14.5719 408.572 19.4968 408.572 25.5719L408.572 141.572C408.572 147.647 403.647 152.572 397.572 152.572L25.5719 152.572C19.4968 152.572 14.5719 147.647 14.5719 141.572Z" fill="#F5E8FF" fill-rule="evenodd"/></g></g><path d="M841 581C841 574.925 845.925 570 852 570L1224 570C1230.08 570 1235 574.925 1235 581L1235 697C1235 703.075 1230.08 708 1224 708L852 708C845.925 708 841 703.075 841 697Z" fill="#F5E8FF" fill-rule="evenodd"/><g filter="url(#fx13)" transform="translate(834 563)"><g><path d="M21.1422 32.1422C21.1422 26.067 26.067 21.1422 32.1422 21.1422L404.142 21.1422C410.217 21.1422 415.142 26.067 415.142 32.1422L415.142 148.142C415.142 154.217 410.217 159.142 404.142 159.142L32.1422 159.142C26.067 159.142 21.1422 154.217 21.1422 148.142Z" fill="#F5E8FF" fill-rule="evenodd"/></g></g><path d="M841 581C841 574.925 845.925 570 852 570L1224 570C1230.08 570 1235 574.925 1235 581L1235 697C1235 703.075 1230.08 708 1224 708L852 708C845.925 708 841 703.075 841 697Z" fill="#F5E8FF" fill-rule="evenodd"/><g filter="url(#fx14)" transform="translate(815 287)"><g><path d="M14.5719 32.9849C14.5719 22.8157 22.8157 14.5719 32.9849 14.5719L391.159 14.5719C401.328 14.5719 409.572 22.8157 409.572 32.9849L409.572 227.159C409.572 237.328 401.328 245.572 391.159 245.572L32.9849 245.572C22.8157 245.572 14.5719 237.328 14.5719 227.159Z" fill="#F5E8FF" fill-rule="evenodd"/></g></g><path d="M839 329.413C839 319.244 847.244 311 857.413 311L1215.59 311C1225.76 311 1234 319.244 1234 329.413L1234 523.587C1234 533.756 1225.76 542 1215.59 542L857.413 542C847.244 542 839 533.756 839 523.587Z" fill="#F5E8FF" fill-rule="evenodd"/><g filter="url(#fx15)" transform="translate(832 304)"><g><path d="M21.1422 39.5552C21.1422 29.386 29.3859 21.1422 39.5552 21.1422L397.729 21.1422C407.898 21.1422 416.142 29.386 416.142 39.5552L416.142 233.729C416.142 243.898 407.898 252.142 397.729 252.142L39.5552 252.142C29.3859 252.142 21.1422 243.898 21.1422 233.729Z" fill="#F5E8FF" fill-rule="evenodd"/></g></g><path d="M839 329.413C839 319.244 847.244 311 857.413 311L1215.59 311C1225.76 311 1234 319.244 1234 329.413L1234 523.587C1234 533.756 1225.76 542 1215.59 542L857.413 542C847.244 542 839 533.756 839 523.587Z" fill="#F5E8FF" fill-rule="evenodd"/><g filter="url(#fx16)" transform="translate(816 16)"><g><path d="M14.5719 34.2601C14.5719 23.3866 23.3866 14.5719 34.2601 14.5719L389.884 14.5719C400.757 14.5719 409.572 23.3866 409.572 34.2601L409.572 241.884C409.572 252.757 400.757 261.572 389.884 261.572L34.2601 261.572C23.3866 261.572 14.5719 252.757 14.5719 241.884Z" fill="#F5E8FF" fill-rule="evenodd"/></g></g><path d="M840 59.6882C840 48.8147 848.815 40 859.688 40L1215.31 40C1226.19 40 1235 48.8147 1235 59.6882L1235 267.312C1235 278.185 1226.19 287 1215.31 287L859.688 287C848.815 287 840 278.185 840 267.312Z" fill="#F5E8FF" fill-rule="evenodd"/><g filter="url(#fx17)" transform="translate(833 33)"><g><path d="M21.1422 40.8304C21.1422 29.9569 29.9569 21.1421 40.8304 21.1421L396.454 21.1421C407.327 21.1421 416.142 29.9569 416.142 40.8304L416.142 248.454C416.142 259.327 407.327 268.142 396.454 268.142L40.8304 268.142C29.9569 268.142 21.1422 259.327 21.1422 248.454Z" fill="#F5E8FF" fill-rule="evenodd"/></g></g><path d="M840 59.6882C840 48.8147 848.815 40 859.688 40L1215.31 40C1226.19 40 1235 48.8147 1235 59.6882L1235 267.312C1235 278.185 1226.19 287 1215.31 287L859.688 287C848.815 287 840 278.185 840 267.312Z" fill="#F5E8FF" fill-rule="evenodd"/><g filter="url(#fx18)" transform="translate(372 164)"><g><path d="M14.5719 18.5575C14.5719 16.3563 16.3563 14.5719 18.5574 14.5719L185.586 14.5719C187.788 14.5719 189.572 16.3563 189.572 18.5575L189.572 60.5864C189.572 62.7875 187.788 64.5719 185.586 64.5719L18.5574 64.5719C16.3563 64.5719 14.5719 62.7875 14.5719 60.5864Z" fill="#F5E8FF" fill-rule="evenodd"/></g></g><path d="M396 191.986C396 189.784 397.784 188 399.986 188L567.014 188C569.216 188 571 189.784 571 191.986L571 234.014C571 236.216 569.216 238 567.014 238L399.986 238C397.784 238 396 236.216 396 234.014Z" fill="#F5E8FF" fill-rule="evenodd"/><g filter="url(#fx19)" transform="translate(389 181)"><g><path d="M21.1422 25.1277C21.1422 22.9265 22.9265 21.1421 25.1277 21.1421L192.157 21.1421C194.358 21.1421 196.142 22.9265 196.142 25.1277L196.142 67.1566C196.142 69.3577 194.358 71.1421 192.157 71.1421L25.1277 71.1421C22.9265 71.1421 21.1422 69.3577 21.1422 67.1566Z" fill="#F5E8FF" fill-rule="evenodd"/></g></g><path d="M396 191.986C396 189.784 397.784 188 399.986 188L567.014 188C569.216 188 571 189.784 571 191.986L571 234.014C571 236.216 569.216 238 567.014 238L399.986 238C397.784 238 396 236.216 396 234.014Z" fill="#F5E8FF" fill-rule="evenodd"/><g filter="url(#fx20)" transform="translate(610 164)"><g><path d="M14.5719 18.5573C14.5719 16.3562 16.3562 14.5719 18.5573 14.5719L184.586 14.5719C186.788 14.5719 188.572 16.3562 188.572 18.5573L188.572 60.5865C188.572 62.7876 186.788 64.5719 184.586 64.5719L18.5573 64.5719C16.3562 64.5719 14.5719 62.7876 14.5719 60.5865Z" fill="#F5E8FF" fill-rule="evenodd"/></g></g><path d="M634 191.985C634 189.784 635.784 188 637.985 188L804.015 188C806.216 188 808 189.784 808 191.985L808 234.015C808 236.216 806.216 238 804.015 238L637.985 238C635.784 238 634 236.216 634 234.015Z" fill="#F5E8FF" fill-rule="evenodd"/><g filter="url(#fx21)" transform="translate(627 181)"><g><path d="M21.1422 25.1276C21.1422 22.9265 22.9265 21.1421 25.1276 21.1421L191.157 21.1421C193.358 21.1421 195.142 22.9265 195.142 25.1276L195.142 67.1567C195.142 69.3578 193.358 71.1421 191.157 71.1421L25.1276 71.1421C22.9265 71.1421 21.1422 69.3578 21.1422 67.1567Z" fill="#F5E8FF" fill-rule="evenodd"/></g></g><path d="M634 191.985C634 189.784 635.784 188 637.985 188L804.015 188C806.216 188 808 189.784 808 191.985L808 234.015C808 236.216 806.216 238 804.015 238L637.985 238C635.784 238 634 236.216 634 234.015Z" fill="#F5E8FF" fill-rule="evenodd"/></g></svg>